<svg width="116" height="116" viewBox="0 0 116 116" fill="none" xmlns="http://www.w3.org/2000/svg">
<path d="M58.0007 115.109C89.5417 115.109 115.111 89.5398 115.111 57.9987C115.111 26.4577 89.5417 0.888672 58.0007 0.888672C26.4597 0.888672 0.890625 26.4577 0.890625 57.9987C0.890625 89.5398 26.4597 115.109 58.0007 115.109Z" fill="#FFC843"/>
<path d="M57.998 105.593C84.2822 105.593 105.59 84.2851 105.59 58.0009C105.59 31.7167 84.2822 10.4092 57.998 10.4092C31.7138 10.4092 10.4062 31.7167 10.4062 58.0009C10.4062 84.2851 31.7138 105.593 57.998 105.593Z" fill="#D38700"/>
<path d="M41.5366 70.0957L56.9004 85.4596C57.5071 86.0662 58.4894 86.0662 59.096 85.4596L74.4472 70.1084C75.0526 69.503 75.0538 68.522 74.4497 67.9154L70.2071 63.655C69.6017 63.0471 68.6182 63.0458 68.0103 63.6524L59.0909 72.5591C58.4881 73.1606 57.5122 73.1644 56.9055 72.5667L47.8441 63.6486C47.2298 63.0445 46.2424 63.0559 45.6421 63.674L41.5213 67.9154C40.9299 68.5246 40.9363 69.4954 41.5366 70.0957Z" fill="#FFC843"/>
<path d="M41.5366 45.9067L56.9004 30.5429C57.5071 29.9362 58.4894 29.9362 59.096 30.5429L74.4472 45.8941C75.0526 46.4994 75.0538 47.4804 74.4497 48.0871L70.2071 52.3475C69.6017 52.9554 68.6182 52.9567 68.0103 52.35L59.0909 43.4434C58.4881 42.8418 57.5122 42.838 56.9055 43.4358L47.8441 52.3538C47.2298 52.9579 46.2424 52.9465 45.6421 52.3285L41.5213 48.0871C40.9299 47.4779 40.9363 46.507 41.5366 45.9067Z" fill="#FFC843"/>
<path d="M30.545 59.097L34.8029 63.3549C35.4095 63.9615 36.3918 63.9615 36.9984 63.3549L41.2525 59.1008C41.8591 58.4942 41.8591 57.5119 41.2525 56.9052L36.9946 52.6474C36.388 52.0407 35.4057 52.0407 34.799 52.6474L30.5437 56.9027C29.9383 57.5081 29.9383 58.4904 30.545 59.097Z" fill="#FFC843"/>
<path d="M52.6465 59.097L56.9044 63.3549C57.5111 63.9615 58.4933 63.9615 59.1 63.3549L63.354 59.1008C63.9607 58.4942 63.9607 57.5119 63.354 56.9052L59.0962 52.6474C58.4895 52.0407 57.5072 52.0407 56.9006 52.6474L52.6453 56.9027C52.0399 57.5081 52.0399 58.4916 52.6465 59.097Z" fill="#FFC843"/>
<path d="M74.7511 59.097L79.0089 63.3549C79.6156 63.9615 80.5979 63.9615 81.2045 63.3549L85.4586 59.1008C86.0652 58.4942 86.0652 57.5119 85.4586 56.9052L81.2007 52.6474C80.5941 52.0407 79.6118 52.0407 79.0051 52.6474L74.7498 56.9027C74.1457 57.5081 74.1457 58.4916 74.7511 59.097Z" fill="#FFC843"/>
</svg>
