<svg width="27" height="28" viewBox="0 0 27 28" fill="none" xmlns="http://www.w3.org/2000/svg">
<path d="M17.2333 10C16.9918 9.58102 16.6409 9.2356 16.2181 9.00074C15.7954 8.76587 15.3167 8.65039 14.8333 8.66667H12.1667C11.4594 8.66667 10.7811 8.94762 10.281 9.44772C9.78095 9.94781 9.5 10.6261 9.5 11.3333C9.5 12.0406 9.78095 12.7189 10.281 13.219C10.7811 13.719 11.4594 14 12.1667 14H14.8333C15.5406 14 16.2189 14.281 16.719 14.781C17.219 15.2811 17.5 15.9594 17.5 16.6667C17.5 17.3739 17.219 18.0522 16.719 18.5523C16.2189 19.0524 15.5406 19.3333 14.8333 19.3333H12.1667C11.6833 19.3496 11.2047 19.2341 10.7819 18.9993C10.3591 18.7644 10.0082 18.419 9.76667 18M13.5 6V8.66667M13.5 19.3333V22M25.5 14C25.5 20.6274 20.1274 26 13.5 26C6.87258 26 1.5 20.6274 1.5 14C1.5 7.37258 6.87258 2 13.5 2C20.1274 2 25.5 7.37258 25.5 14Z" stroke="white" stroke-width="2.5" stroke-linecap="square" stroke-linejoin="round"/>
</svg>
