<svg width="28" height="28" viewBox="0 0 28 28" fill="none" xmlns="http://www.w3.org/2000/svg">
<path d="M13.9997 8.66709V26M13.9997 8.66709C13.5174 6.67967 12.687 4.98059 11.6167 3.79142C10.5465 2.60225 9.28607 1.97817 7.99985 2.00058C7.11582 2.00058 6.268 2.35176 5.64289 2.97687C5.01778 3.60198 4.6666 4.4498 4.6666 5.33384C4.6666 6.21787 5.01778 7.06569 5.64289 7.6908C6.268 8.31591 7.11582 8.66709 7.99985 8.66709M13.9997 8.66709C14.482 6.67967 15.3124 4.98059 16.3827 3.79142C17.4529 2.60225 18.7133 1.97817 19.9996 2.00058C20.8836 2.00058 21.7314 2.35176 22.3565 2.97687C22.9816 3.60198 23.3328 4.4498 23.3328 5.33384C23.3328 6.21787 22.9816 7.06569 22.3565 7.6908C21.7314 8.31591 20.8836 8.66709 19.9996 8.66709M23.3328 14.0003V23.3334C23.3328 24.0406 23.0519 24.7189 22.5518 25.219C22.0517 25.7191 21.3734 26 20.6662 26H7.3332C6.62598 26 5.94772 25.7191 5.44763 25.219C4.94755 24.7189 4.6666 24.0406 4.6666 23.3334V14.0003M3.3333 8.66709H24.6661C25.4025 8.66709 25.9994 9.26403 25.9994 10.0004V12.667C25.9994 13.4034 25.4025 14.0003 24.6661 14.0003H3.3333C2.59694 14.0003 2 13.4034 2 12.667V10.0004C2 9.26403 2.59694 8.66709 3.3333 8.66709Z" stroke="white" stroke-width="2.5" stroke-linecap="square" stroke-linejoin="round"/>
</svg>
