<svg width="21" height="28" viewBox="0 0 21 28" fill="none" xmlns="http://www.w3.org/2000/svg">
<path d="M10.5028 2V26M10.5028 14.7059L15.5235 9.70259M10.5028 22.1882L18.3767 14.3416M3.13617 13.2941C2.39115 14.5819 1.99931 16.0423 2 17.5288C2.00069 19.0153 2.39389 20.4754 3.14009 21.7624C3.8863 23.0495 4.95924 24.1183 6.25113 24.8613C7.54303 25.6043 9.00838 25.9955 10.5 25.9955C11.9916 25.9955 13.457 25.6043 14.7489 24.8613C16.0408 24.1183 17.1137 23.0495 17.8599 21.7624C18.6061 20.4754 18.9993 19.0153 19 17.5288C19.0007 16.0423 18.6088 14.5819 17.8638 13.2941L10.5014 2L3.13475 13.2941H3.13617Z" stroke="white" stroke-width="2.5" stroke-linecap="round" stroke-linejoin="round"/>
</svg>
