<svg width="179" height="160" viewBox="0 0 179 160" fill="none" xmlns="http://www.w3.org/2000/svg">
<path fill-rule="evenodd" clip-rule="evenodd" d="M85.6766 0.220597C99.4242 1.31398 110.355 10.0592 123.161 15.1772C141.732 22.5998 171.263 17.9287 177.504 36.9217C183.737 55.8916 153.131 67.6573 146.605 86.5288C140.297 104.772 153.362 127.973 140.915 142.732C128.248 157.753 104.969 162.537 85.6766 158.776C67.4789 155.228 57.5403 136.686 44.1518 123.866C32.9536 113.144 20.8098 103.928 13.9013 90.0512C6.02045 74.2214 -3.85252 56.2469 2.21973 39.6398C8.26966 23.0938 27.6567 16.3758 43.5924 8.84888C56.8644 2.58011 71.0435 -0.943217 85.6766 0.220597Z" fill="#FBFBFB"/>
</svg>
