<svg width="1220" height="285" viewBox="0 0 1220 285" fill="none" xmlns="http://www.w3.org/2000/svg">
<path fill-rule="evenodd" clip-rule="evenodd" d="M660.029 39.6178C729.096 43.7308 793.082 27.245 863.542 29.2441C986.585 32.7352 1167.61 25.4251 1211.47 55.2636C1254.39 84.4668 1123.13 104.767 1089.85 134.795C1054.23 166.938 1110.08 208.472 1043.38 237.14C970.334 268.531 796.849 292.585 660.029 282.784C513.648 272.297 475.936 245.286 357.787 220.665C250.791 198.368 115.927 182.897 39.3269 153.436C-35.5514 124.637 8.03583 82.5758 74.0513 52.3706C134.828 24.5625 251.036 2.80162 374.418 0.116443C484.777 -2.28532 552.119 33.1917 660.029 39.6178Z" fill="#FBFBFB"/>
</svg>
