<svg width="32" height="32" viewBox="0 0 32 32" fill="none" xmlns="http://www.w3.org/2000/svg">
<g clip-path="url(#clip0)">
<path fill-rule="evenodd" clip-rule="evenodd" d="M9.26203 8.88405C8.17925 8.88405 7.11906 9.33101 6.32091 10.1622C5.51941 10.9968 5.05202 12.1499 5.05202 13.3726V16.1075H5.89402C7.08308 16.1075 8.23649 16.4753 9.20792 17.1512C10.178 17.8262 10.919 18.7746 11.3528 19.865C11.7863 20.9548 11.8982 22.1484 11.6785 23.299C11.4586 24.45 10.9137 25.5206 10.0975 26.3705C9.28035 27.2215 8.22656 27.8133 7.06344 28.0542C5.8995 28.2953 4.69424 28.1706 3.60466 27.7006C2.51639 27.2312 1.60289 26.4436 0.967624 25.4535C0.332997 24.4645 0 23.3119 0 22.1408V18.6336V13.3726C0 10.8746 0.951974 8.45928 2.67697 6.66295C4.40532 4.86313 6.7718 3.83203 9.26203 3.83203C10.6571 3.83203 11.788 4.96296 11.788 6.35804C11.788 7.75311 10.6571 8.88405 9.26203 8.88405ZM29.4701 8.88405C28.3873 8.88405 27.3271 9.33101 26.529 10.1622C25.7275 10.9968 25.2601 12.1499 25.2601 13.3726V16.1075H26.1021C27.2911 16.1075 28.4445 16.4753 29.416 17.1512C30.3861 17.8262 31.1271 18.7746 31.5609 19.865C31.9943 20.9548 32.1063 22.1484 31.8865 23.299C31.6667 24.45 31.1217 25.5206 30.3056 26.3705C29.4884 27.2215 28.4346 27.8133 27.2715 28.0542C26.1076 28.2953 24.9023 28.1706 23.8127 27.7006C22.7244 27.2312 21.811 26.4436 21.1757 25.4535C20.5411 24.4645 20.2081 23.3119 20.2081 22.1408V18.6336V13.3726C20.2081 10.8746 21.16 8.45928 22.885 6.66295C24.6134 4.86313 26.9799 3.83203 29.4701 3.83203C30.8652 3.83203 31.9961 4.96296 31.9961 6.35804C31.9961 7.75311 30.8652 8.88405 29.4701 8.88405Z" fill="#1E2436"/>
</g>
<defs>
<clipPath id="clip0">
<rect width="32" height="32" fill="white"/>
</clipPath>
</defs>
</svg>
