<svg width="32" height="32" viewBox="0 0 32 32" fill="none" xmlns="http://www.w3.org/2000/svg">
<path d="M15.9987 10.667C19.5294 10.667 22.7027 11.7683 24.8987 13.5203C25.6499 13.257 26.4706 13.2712 27.2123 13.5604C27.954 13.8496 28.5676 14.3947 28.9423 15.097C29.317 15.7994 29.428 16.6126 29.2552 17.3897C29.0823 18.1668 28.6371 18.8563 28 19.3337C28 24.1203 22.6267 28.0003 16 28.0003C9.50003 28.0003 4.2067 24.267 4.00003 19.6083L2.6667 19.3337C2.02961 18.8563 1.58439 18.1668 1.41155 17.3897C1.23871 16.6126 1.34968 15.7994 1.72438 15.097C2.09908 14.3947 2.71277 13.8496 3.45444 13.5604C4.19611 13.2712 5.01679 13.257 5.76803 13.5203C7.9627 11.7697 11.136 10.667 14.6667 10.667H15.9987Z" stroke="#1E2436" stroke-width="2" stroke-linecap="round" stroke-linejoin="round"/>
<path d="M16 10.6667L17.3333 4L25.3333 5.33333" stroke="#1E2436" stroke-width="2" stroke-linecap="round" stroke-linejoin="round"/>
<path d="M25.3333 6.66667C26.0697 6.66667 26.6667 6.06971 26.6667 5.33333C26.6667 4.59695 26.0697 4 25.3333 4C24.597 4 24 4.59695 24 5.33333C24 6.06971 24.597 6.66667 25.3333 6.66667Z" stroke="#1E2436" stroke-width="2" stroke-linecap="round" stroke-linejoin="round"/>
<path d="M11.9987 18.0003C12.3669 18.0003 12.6654 17.7018 12.6654 17.3337C12.6654 16.9655 12.3669 16.667 11.9987 16.667C11.6305 16.667 11.332 16.9655 11.332 17.3337C11.332 17.7018 11.6305 18.0003 11.9987 18.0003Z" fill="#1E2436" stroke="#1E2436" stroke-width="2" stroke-linecap="round" stroke-linejoin="round"/>
<path d="M19.9987 18.0003C20.3669 18.0003 20.6654 17.7018 20.6654 17.3337C20.6654 16.9655 20.3669 16.667 19.9987 16.667C19.6305 16.667 19.332 16.9655 19.332 17.3337C19.332 17.7018 19.6305 18.0003 19.9987 18.0003Z" fill="#1E2436" stroke="#1E2436" stroke-width="2" stroke-linecap="round" stroke-linejoin="round"/>
<path d="M13.332 22.667C14.2214 23.111 15.1094 23.3337 15.9987 23.3337C16.888 23.3337 17.776 23.111 18.6654 22.667" stroke="#1E2436" stroke-width="2" stroke-linecap="round" stroke-linejoin="round"/>
</svg>
