<svg width="32" height="33" viewBox="0 0 32 33" fill="none" xmlns="http://www.w3.org/2000/svg">
<path d="M12.7778 26.6668C12.0031 26.6668 12.1348 26.3717 11.8676 25.6276L9.58984 18.0652L27.1234 7.57129" fill="#EFEFEF"/>
<path d="M12.7734 26.6679C13.3712 26.6679 13.6352 26.3921 13.9689 26.0649L17.1568 22.9377L13.1803 20.5186" fill="#D0D0D0"/>
<path d="M13.1857 20.5186L22.8211 27.7003C23.9208 28.3124 24.7142 27.9954 24.9881 26.6706L28.9103 8.02473C29.3117 6.40061 28.2966 5.66372 27.2446 6.14553L4.21387 15.1045C2.64182 15.7407 2.65119 16.6255 3.92735 17.0197L9.83755 18.8808L23.5203 10.1723C24.1662 9.77709 24.7592 9.98936 24.2726 10.4251" fill="white"/>
</svg>
