<svg width="32" height="33" viewBox="0 0 32 33" fill="none" xmlns="http://www.w3.org/2000/svg">
<path d="M29 6.15179C27.7 6.82425 26.426 7.09736 25.1 7.51045C23.6427 5.77438 21.4821 5.67831 19.406 6.499C17.3299 7.31968 15.9701 9.32611 16 11.6276V13C11.7815 13.1139 8.0245 11.0855 5.6 7.51045C5.6 7.51045 0.1634 17.7114 10.8 22.6067C8.3664 24.3181 5.9393 25.4722 3 25.3515C7.3004 27.8259 11.9869 28.6768 16.0442 27.4334C20.6982 26.0061 24.5228 22.324 25.9905 16.8084C26.4283 15.1309 26.6457 13.3978 26.6366 11.6578C26.634 11.3161 28.5996 7.85354 29 6.15041V6.15179Z" fill="white"/>
</svg>
