<svg width="27" height="26" viewBox="0 0 27 26" fill="none" xmlns="http://www.w3.org/2000/svg">
<path d="M13.5 13H9.5C7.37827 13 5.34344 12.1308 3.84315 10.5836C2.34286 9.03646 1.5 6.93804 1.5 4.75V2H5.5C7.62173 2 9.65656 2.86919 11.1569 4.41637C12.6571 5.96354 13.5 8.06196 13.5 10.25V24M13.5 15.75C13.5 13.562 14.3429 11.4635 15.8431 9.91637C17.3434 8.36919 19.3783 7.5 21.5 7.5H25.5V8.875C25.5 11.063 24.6571 13.1615 23.1569 14.7086C21.6566 16.2558 19.6217 17.125 17.5 17.125H13.5" stroke="white" stroke-width="2.5" stroke-linecap="square" stroke-linejoin="round"/>
</svg>
