<svg width="22" height="28" viewBox="0 0 22 28" fill="none" xmlns="http://www.w3.org/2000/svg">
<path d="M5.85714 12.6667V7.33333C5.85714 5.91885 6.39898 4.56229 7.36345 3.5621C8.32792 2.5619 9.63603 2 11 2C12.364 2 13.6721 2.5619 14.6365 3.5621C15.601 4.56229 16.1429 5.91885 16.1429 7.33333V12.6667M4.57143 12.6667H17.4286C18.8487 12.6667 20 13.8606 20 15.3333V23.3333C20 24.8061 18.8487 26 17.4286 26H4.57143C3.15127 26 2 24.8061 2 23.3333V15.3333C2 13.8606 3.15127 12.6667 4.57143 12.6667ZM12.2857 19.3333C12.2857 20.0697 11.7101 20.6667 11 20.6667C10.2899 20.6667 9.71429 20.0697 9.71429 19.3333C9.71429 18.597 10.2899 18 11 18C11.7101 18 12.2857 18.597 12.2857 19.3333Z" stroke="white" stroke-width="2.5" stroke-linecap="square" stroke-linejoin="round"/>
</svg>
