<svg width="319" height="97" viewBox="0 0 319 97" fill="none" xmlns="http://www.w3.org/2000/svg">
<path fill-rule="evenodd" clip-rule="evenodd" d="M163.551 0.0012188C190.667 0.0726162 214.118 4.65912 238.647 8.04241C265.255 11.7124 300.325 13.0698 313.79 20.7235C327.315 28.4111 310.836 37.5985 305.617 46.1093C301.229 53.2644 297.009 60.2742 285.581 66.7285C273.769 73.3994 258.008 79.2041 238.418 84.0602C215.929 89.6349 192.975 97.4717 163.551 96.9778C133.919 96.4804 119.891 85.5922 93.4824 81.6274C65.1106 77.3677 19.3304 81.25 4.14036 73.0446C-11.2078 64.7539 20.5298 55.3001 27.7296 46.1093C33.1731 39.1604 31.3 31.9573 41.408 25.4709C52.1707 18.5644 66.5462 12.0497 87.6701 7.64488C109.833 3.02332 136.338 -0.0704328 163.551 0.0012188Z" fill="#FBFBFB"/>
</svg>
