<svg width="141" height="140" viewBox="0 0 141 140" fill="none" xmlns="http://www.w3.org/2000/svg">
<g filter="url(#filter0_d)">
<circle cx="70.3359" cy="46" r="46" fill="white"/>
<circle cx="70.3359" cy="46" r="45" stroke="#EBEBEB" stroke-width="2"/>
</g>
<path d="M91.9441 23.75L73.2148 37.6605L76.6784 29.4535L91.9441 23.75Z" fill="#E2761B" stroke="#E2761B" stroke-width="0.189017" stroke-linecap="round" stroke-linejoin="round"/>
<path d="M48.707 23.75L67.2857 37.7923L63.9916 29.4535L48.707 23.75Z" fill="#E4761B" stroke="#E4761B" stroke-width="0.189017" stroke-linecap="round" stroke-linejoin="round"/>
<path d="M85.1991 55.9951L80.2109 63.6374L90.8838 66.5739L93.952 56.1645L85.1991 55.9951Z" fill="#E4761B" stroke="#E4761B" stroke-width="0.189017" stroke-linecap="round" stroke-linejoin="round"/>
<path d="M46.7266 56.1636L49.776 66.5729L60.4488 63.6364L55.4606 55.9941L46.7266 56.1636Z" fill="#E4761B" stroke="#E4761B" stroke-width="0.189017" stroke-linecap="round" stroke-linejoin="round"/>
<path d="M59.8452 43.0819L56.8711 47.5807L67.4687 48.0513L67.0922 36.6631L59.8452 43.0819Z" fill="#E4761B" stroke="#E4761B" stroke-width="0.189017" stroke-linecap="round" stroke-linejoin="round"/>
<path d="M80.8007 43.0818L73.4595 36.5312L73.2148 48.0512L83.7936 47.5806L80.8007 43.0818Z" fill="#E4761B" stroke="#E4761B" stroke-width="0.189017" stroke-linecap="round" stroke-linejoin="round"/>
<path d="M60.4453 63.6369L66.8076 60.531L61.3112 56.2393L60.4453 63.6369Z" fill="#E4761B" stroke="#E4761B" stroke-width="0.189017" stroke-linecap="round" stroke-linejoin="round"/>
<path d="M73.832 60.53L80.2132 63.6359L79.3285 56.2383L73.832 60.53Z" fill="#E4761B" stroke="#E4761B" stroke-width="0.189017" stroke-linecap="round" stroke-linejoin="round"/>
<path d="M80.221 63.6371L73.8398 60.5312L74.3481 64.6912L74.2916 66.4418L80.221 63.6371Z" fill="#D7C1B3" stroke="#D7C1B3" stroke-width="0.189017" stroke-linecap="round" stroke-linejoin="round"/>
<path d="M60.4531 63.6371L66.3825 66.4418L66.3449 64.6912L66.8154 60.5312L60.4531 63.6371Z" fill="#D7C1B3" stroke="#D7C1B3" stroke-width="0.189017" stroke-linecap="round" stroke-linejoin="round"/>
<path d="M66.4762 53.4901L61.168 51.9278L64.9138 50.2148L66.4762 53.4901Z" fill="#233447" stroke="#233447" stroke-width="0.189017" stroke-linecap="round" stroke-linejoin="round"/>
<path d="M74.1758 53.4901L75.7381 50.2148L79.5028 51.9278L74.1758 53.4901Z" fill="#233447" stroke="#233447" stroke-width="0.189017" stroke-linecap="round" stroke-linejoin="round"/>
<path d="M60.4609 63.6374L61.3644 55.9951L55.4727 56.1645L60.4609 63.6374Z" fill="#CD6116" stroke="#CD6116" stroke-width="0.189017" stroke-linecap="round" stroke-linejoin="round"/>
<path d="M79.3203 55.9932L80.2238 63.6355L85.212 56.1626L79.3203 55.9932Z" fill="#CD6116" stroke="#CD6116" stroke-width="0.189017" stroke-linecap="round" stroke-linejoin="round"/>
<path d="M83.7975 47.5801L73.2188 48.0507L74.1976 53.4906L75.7599 50.2154L79.5246 51.9283L83.7975 47.5801Z" fill="#CD6116" stroke="#CD6116" stroke-width="0.189017" stroke-linecap="round" stroke-linejoin="round"/>
<path d="M61.1745 51.9283L64.9392 50.2154L66.4828 53.4906L67.4804 48.0507L56.8828 47.5801L61.1745 51.9283Z" fill="#CD6116" stroke="#CD6116" stroke-width="0.189017" stroke-linecap="round" stroke-linejoin="round"/>
<path d="M56.875 47.5791L61.3173 56.2379L61.1667 51.9273L56.875 47.5791Z" fill="#E4751F" stroke="#E4751F" stroke-width="0.189017" stroke-linecap="round" stroke-linejoin="round"/>
<path d="M79.5203 51.9273L79.332 56.2379L83.7932 47.5791L79.5203 51.9273Z" fill="#E4751F" stroke="#E4751F" stroke-width="0.189017" stroke-linecap="round" stroke-linejoin="round"/>
<path d="M67.4742 48.0498L66.4766 53.4898L67.7189 59.9086L68.0013 51.4568L67.4742 48.0498Z" fill="#E4751F" stroke="#E4751F" stroke-width="0.189017" stroke-linecap="round" stroke-linejoin="round"/>
<path d="M73.2153 48.0498L72.707 51.438L72.9329 59.9086L74.1941 53.4898L73.2153 48.0498Z" fill="#E4751F" stroke="#E4751F" stroke-width="0.189017" stroke-linecap="round" stroke-linejoin="round"/>
<path d="M74.1948 53.4911L72.9336 59.9098L73.8371 60.531L79.3336 56.2393L79.5218 51.9287L74.1948 53.4911Z" fill="#F6851B" stroke="#F6851B" stroke-width="0.189017" stroke-linecap="round" stroke-linejoin="round"/>
<path d="M61.168 51.9287L61.3186 56.2393L66.815 60.531L67.7185 59.9098L66.4762 53.4911L61.168 51.9287Z" fill="#F6851B" stroke="#F6851B" stroke-width="0.189017" stroke-linecap="round" stroke-linejoin="round"/>
<path d="M74.2883 66.4424L74.3448 64.6918L73.8742 64.2777H66.7778L66.3449 64.6918L66.3825 66.4424L60.4531 63.6377L62.5237 65.3318L66.7213 68.2494H73.9307L78.1471 65.3318L80.2177 63.6377L74.2883 66.4424Z" fill="#C0AD9E" stroke="#C0AD9E" stroke-width="0.189017" stroke-linecap="round" stroke-linejoin="round"/>
<path d="M73.8394 60.5304L72.9359 59.9092H67.7218L66.8182 60.5304L66.3477 64.6903L66.7806 64.2762H73.877L74.3476 64.6903L73.8394 60.5304Z" fill="#161616" stroke="#161616" stroke-width="0.189017" stroke-linecap="round" stroke-linejoin="round"/>
<path d="M92.7386 38.564L94.3385 30.8841L91.948 23.75L73.8398 37.1899L80.8045 43.0816L90.6492 45.9616L92.8327 43.4205L91.8915 42.7428L93.3974 41.3687L92.2303 40.4652L93.7362 39.317L92.7386 38.564Z" fill="#763D16" stroke="#763D16" stroke-width="0.189017" stroke-linecap="round" stroke-linejoin="round"/>
<path d="M46.3359 30.8841L47.9359 38.564L46.9195 39.317L48.4253 40.4652L47.2771 41.3687L48.783 42.7428L47.8418 43.4205L50.0065 45.9616L59.8512 43.0816L66.8158 37.1899L48.7077 23.75L46.3359 30.8841Z" fill="#763D16" stroke="#763D16" stroke-width="0.189017" stroke-linecap="round" stroke-linejoin="round"/>
<path d="M90.6449 45.962L80.8003 43.082L83.7932 47.5808L79.332 56.2396L85.2049 56.1643H93.9578L90.6449 45.962Z" fill="#F6851B" stroke="#F6851B" stroke-width="0.189017" stroke-linecap="round" stroke-linejoin="round"/>
<path d="M59.8543 43.082L50.0096 45.962L46.7344 56.1643H55.4684L61.3225 56.2396L56.8802 47.5808L59.8543 43.082Z" fill="#F6851B" stroke="#F6851B" stroke-width="0.189017" stroke-linecap="round" stroke-linejoin="round"/>
<path d="M73.2157 48.0516L73.8368 37.1905L76.698 29.4541H63.9922L66.8157 37.1905L67.4745 48.0516L67.7004 51.4775L67.7192 59.9104H72.9333L72.971 51.4775L73.2157 48.0516Z" fill="#F6851B" stroke="#F6851B" stroke-width="0.189017" stroke-linecap="round" stroke-linejoin="round"/>
<defs>
<filter id="filter0_d" x="0.335938" y="0" width="140" height="140" filterUnits="userSpaceOnUse" color-interpolation-filters="sRGB">
<feFlood flood-opacity="0" result="BackgroundImageFix"/>
<feColorMatrix in="SourceAlpha" type="matrix" values="0 0 0 0 0 0 0 0 0 0 0 0 0 0 0 0 0 0 127 0" result="hardAlpha"/>
<feOffset dy="24"/>
<feGaussianBlur stdDeviation="12"/>
<feColorMatrix type="matrix" values="0 0 0 0 0 0 0 0 0 0 0 0 0 0 0 0 0 0 0.04 0"/>
<feBlend mode="normal" in2="BackgroundImageFix" result="effect1_dropShadow"/>
<feBlend mode="normal" in="SourceGraphic" in2="effect1_dropShadow" result="shape"/>
</filter>
</defs>
</svg>
