<svg width="32" height="32" viewBox="0 0 32 32" fill="none" xmlns="http://www.w3.org/2000/svg">
<path d="M29.3346 5.34668C28.0013 6.00002 26.6946 6.26535 25.3346 6.66668C23.84 4.98002 21.624 4.88668 19.4946 5.68402C17.3653 6.48135 15.9706 8.43068 16.0013 10.6667V12C11.6746 12.1107 7.8213 10.14 5.33464 6.66668C5.33464 6.66668 -0.241365 16.5774 10.668 21.3334C8.17197 22.996 5.68264 24.1174 2.66797 24C7.07864 26.404 11.8853 27.2307 16.0466 26.0227C20.82 24.636 24.7426 21.0587 26.248 15.7C26.697 14.0702 26.92 12.3865 26.9106 10.696C26.908 10.364 28.924 7.00002 29.3346 5.34535V5.34668Z" stroke="#1E2436" stroke-width="2" stroke-linecap="round" stroke-linejoin="round"/>
</svg>
